<?xml version="1.0" encoding="UTF-8"?>
<svg id="Layer_2" data-name="Layer 2" xmlns="http://www.w3.org/2000/svg" viewBox="0 0 780.34 76.37">
  <defs>
    <style>
      .cls-1 {
        fill: #212121;
        stroke-width: 0px;
      }
    </style>
  </defs>
  <g id="Layer_1-2" data-name="Layer 1">
    <g>
      <path class="cls-1" d="M780.34,76.37h-22.36s.19-1.48.48-2.13c2.94-5.12,4.24-5.85,8.72-4.52.34-.48.73-.95,1.08-1.49.46-.71,2.77-3.19,4.79-2.92,1.03.14,1.6.95,3.43,3.94,2.7,4.42,3.83,6.48,3.86,7.12Z"/>
      <path class="cls-1" d="M636.48,76.36c.03-.31.11-.72.28-1.18,0,0,.22-.59.61-1.13,3.26-4.55,14.4-8.18,14.4-8.18,1.55-.5,2.54-.82,4.12-1.23,2.54-.66,16.62-4.08,24.98-1.96,9.11,2.32,14.39,1.11,16.07,1.57,3.92,1.08,6.66,2.24,8.64,3.41,3.17,1.87,6.82,3.54,8.96,6.56.55.78,1.4,2.14,1.4,2.14"/>
      <path class="cls-1" d="M752.4,76.37s-2.89-6.51-3.93-7.49c-.09-.09-.16-.15-.26-.24-1.78-1.55-3.71-1.24-5.93-1.62-3.7-.64-3.98-2.47-5.98-1.92-1.09.3-1.53.13-3.39,2.06-1.42,1.48-1.7,1.32-2.63,1.83-1.6.87-1.03,1.68-2.45,3.06-.8.77-2.33.76-2.99,1.92-.32.56-1.15,2.4-1.15,2.4"/>
      <path class="cls-1" d="M627.31,76.36c-4.38-1.04-6.72-3.96-8.03-6.58-1.55-3.11-15.79-15.09-18.49-16.76-2.7-1.67-8.58-1.61-12.91-1.95-19.92-1.59-39.85.12-59.78-1.27-16.76-1.17-28.73,6.66-44.65.53-10.41-4.01-27.97-.25-39.82,3.45-23.09,7.2-46.78-15.88-68.17-28.89-.66-.4-1.33-.76-2.01-1.12-11.66-6.16-23.15-12.78-36.37-15.12-2.61-.46-3.88-1.46-3.67-4.18.22-2.83-1.33-3.82-4-3.81-3.11,0-6.31-1.11-9.32-.45-3.48.76-5.46.22-5.72,3.82-.12,1.74-.06,3.49-.09,5.53-11.44.1-19.88,5.82-28.13,12.1-5.1,3.89-10.27,7.69-15.61,11.23-7.58,5.02-15.92,8.2-25.08,6.43-20.66-3.98-50.68-12.03-68.5-24.24-3.14-2.15-7.36-4.22-10.89-3.94-5.86.46-11.12-.72-16.53-2.28-2.57-.74-5.24-1.18-7.9-1.6-8.56-1.34-16.44,1.69-24.45,3.88-6.93,1.9-13.8,3.17-21.17,2.69-7.98-.53-16.31-.66-24.07,1C47.02,20.15,22.45,19.87.09,33.52c-.02,1.83-.09,42.84-.09,42.84h627.31Z"/>
    </g>
  </g>
</svg>